<svg xmlns="http://www.w3.org/2000/svg" viewBox="0 0 64 64" role="img" aria-label="Google">
  <rect width="64" height="64" rx="14" fill="#ffffff"/>
  <path d="M32 29h23c.3 1.8.5 3.4.5 5.1 0 13.1-8.8 22.4-23.4 22.4A24.5 24.5 0 0 1 32 7.5c6.6 0 12.1 2.4 16.3 6.3l-6.6 6.4A14.8 14.8 0 0 0 32 16.4c-8.6 0-15.6 7-15.6 15.6s7 15.6 15.6 15.6c7.9 0 12.6-4.2 14-10.1H32V29z" fill="#4285f4"/>
  <path d="M9.7 22.5A24.5 24.5 0 0 1 32 7.5c6.6 0 12.1 2.4 16.3 6.3l-6.6 6.4A14.8 14.8 0 0 0 32 16.4c-5.7 0-10.6 3-13.3 7.5l-9-1.4z" fill="#ea4335"/>
  <path d="M18.7 40.1A15.5 15.5 0 0 1 16.4 32c0-2.9.8-5.6 2.2-8l-9-1.4A24.2 24.2 0 0 0 7.5 32c0 3.4.7 6.6 2 9.5l9.2-1.4z" fill="#fbbc05"/>
  <path d="M32 56.5c6.6 0 12.2-2.2 16.3-6l-7.8-6.1A15 15 0 0 1 32 47.6c-5.7 0-10.7-3.1-13.3-7.5l-9.2 1.4A24.4 24.4 0 0 0 32 56.5z" fill="#34a853"/>
</svg>
